<?xml version="1.0" encoding="utf-8"?>
<!-- Generator: Adobe Illustrator 16.0.0, SVG Export Plug-In . SVG Version: 6.00 Build 0)  -->
<!DOCTYPE svg PUBLIC "-//W3C//DTD SVG 1.1//EN" "http://www.w3.org/Graphics/SVG/1.1/DTD/svg11.dtd">
<svg version="1.1" xmlns="http://www.w3.org/2000/svg" xmlns:xlink="http://www.w3.org/1999/xlink" x="0px" y="0px"
	 width="521.561px" height="119.516px" viewBox="0 0 521.561 119.516" enable-background="new 0 0 521.561 119.516"
	 xml:space="preserve">
<g id="Logotipo">
	<g>
		<path fill="#136BB0" d="M11.248,29.241l0.418-1.359c-0.234,0,1.841-3.188,1.608-3.188C-1.913,39.392-0.596,59.071,6.707,73.217
			C11.8,83.084,21.122,92.321,32.208,97.3c5.135,2.303,12.998,4.42,21.251,4.25c17.652-0.368,30.027-8.712,37.011-22.312
			l0.411-1.063c-6.163,6.212-16.207,10.526-24.084,11.333C34.021,92.866,0.303,63.505,11.248,29.241z"/>
		<path fill="#136BB0" d="M54.755,34.257c4.328,6.963,12.594,13.083,25.5,10.335c3.259-0.694,10.64-6.248,11.922-9.188
			c-11.064,7.53-17.929,5.008-21.18,4.052c-0.716-0.205-2.373-0.949-3.917-1.877c-3.428-2.062-5.122-3.004-7.792-6.885
			c-1.466-2.132-2.933-5.519-3.414-7.459c-0.794-3.209-0.574-8.146,0.935-12.396c-5.008,4.469-5.78,13.104-4.102,18.814
			C52.92,30.375,54.11,33.216,54.755,34.257z"/>
		<path fill="#136BB0" d="M58.297,71.091c17.326,2.317,30.247-4.965,34.709-16.291c-5.1,5.411-13.714,9.265-21.959,9.208
			c-18.438-0.12-39.158-16.639-36.834-39.668c0.198-1.983,0.991-5.093,3.116-9.124c-6.113,7.708-9.824,14.062-8.783,24.708
			C29.969,54.551,43.79,69.151,58.297,71.091z"/>
	</g>
</g>
<g id="Isotipo">
	<g>
		<path d="M499.723,10.052l-31.289,43.331l-2.832-11.334h-20.543c0,0,2.039,10.314,3.541,15.584
			c1.488,5.206,4.137,10.391,4.25,15.584c0.129,5.942-2.982,17.099-2.982,17.099l19.984-0.099c0,0,2.152-10.704,4.25-15.584
			c0.828-1.941,2.465-3.506,3.541-4.958c3.314-4.484,43.918-59.502,43.918-59.502L499.723,10.052z"/>
		<path d="M458.37,21.655c-4.393-2.642-14.834-1.501-23.766-1.501H420.77c-8.664,0-13.793-0.574-14.67,2.769
			c-2.707,10.328-14.168,67.294-14.168,67.294h18.418l12.041-52.418h9.918c11.475,0,32.562-0.312,32.562-0.312
			S462.399,24.085,458.37,21.655z"/>
		<path d="M387.858,27.229c-3.859-5.383-11.764-7.253-17-7.792c-13.904-1.423-25.479,2.296-31.875,7.084
			c-1.934,1.445-3.543,2.607-4.959,4.25c-0.51,0.595-1.062,1.261-1.537,1.948c-0.41,0.581-0.9,0.978-1.297,1.594
			c-0.588,0.892-1.211,2.579-1.947,4.073c-0.588,1.197-1.148,2.607-1.594,3.719c-3.84,9.591-7.756,27.491-4.25,36.834
			c0.518,1.382,1.672,3.131,2.068,3.662c0.496,0.666,0.949,1.438,1.473,2.005c1.92,2.069,4.762,3.528,7.793,4.25
			c15.35,3.662,46.043,2.125,46.043,2.125l3.762-16.66c0,0-21.721,0.978-32.096-0.34c-1.553-0.198-5.873-0.418-8.09-2.359
			c-1.928-1.686-4.201-5.674-2.535-8.266c1.182-1.849,5.941-1.297,9.916-1.417c12.785-0.39,36.125,0,36.125,0
			s4.471-19.877,2.125-28.334C389.403,31.522,388.893,28.667,387.858,27.229z M372.629,47.185l-27.449-0.177
			c0,0-0.311-11.858,15.691-11.355c5.666,0.177,7.656,0.949,9.811,4.271C373.204,43.819,372.629,47.185,372.629,47.185z"/>
		<path d="M305.512,20.09l-12.75,53.127c0,0-7.055,0.049-9.209,0c-6.799-0.156-9.031-0.383-10.625-3.542
			c-1.678-3.322-0.07-7.551,0.709-12.042c2.174-12.538,7.402-37.649,7.402-37.649l-18.502,0.17c0,0-3.522,16.129-5.193,24.02
			c-2.366,11.15-7.402,27.562-2.125,37.543c5.44,10.278,18.226,8.5,32.583,8.5h20.543c5.072-23.022,15.023-70.233,15.023-70.233
			L305.512,20.09z"/>
		<path d="M246.719,27.882c-1.09-7.919-6.254-16.526-11.921-20.131c-0.234-0.142-1.247-0.95-1.538-1.12
			c-4.193-2.429-10.908-4.477-15.583-4.958c-24.105-2.472-38.485,8.238-46.751,22.667c-3.252,5.667-5.405,11.858-7.084,18.418
			c-1.856,7.267-3.188,16.079-2.125,24.083c0.637,4.796,3.272,11.61,7.084,15.584c9.385,9.783,27.788,8.5,47.459,8.5
			c6.028,0,20.486-0.12,24.849-0.233c1.41-0.042,5.455-16.505,5.093-17.036c-0.347-0.411-5.164,0.163-10.66-0.333
			C240.932,59.085,248.76,42.715,246.719,27.882z M221.927,54.091c-1.785,6.326-3.542,12.722-5.667,18.417
			c-14.316-0.084-27.612,1.871-31.876-7.083c-2.408-5.065-1.325-11.922,0-18.417c1.778-8.749,3.478-15.103,8.501-20.543
			c3.881-4.2,13.649-9.35,24.084-5.666c3.463,1.225,8.833,7.055,9.208,13.458C226.524,40.243,223.797,47.447,221.927,54.091z"/>
		<path d="M136.215,37.091h19.834c1.254-5.355,2.444-11.497,3.634-16.916c-6.97,0-12.871-0.085-19.218-0.085
			C138.929,25.254,137.752,31.154,136.215,37.091z"/>
		<path d="M127.715,74.633c-2.925,13.757-3.308,28.037-18.417,26.209c-1.445,5.313-3.28,12.432-4.902,18.361
			c6.198,0.128,11.901,0.602,16.944,0.057c3.103-0.34,8.706-1.679,9.917-2.834c0.489-0.467,0.829-0.248,1.417-0.708
			c6.573-5.135,8.195-12.233,10.625-21.959c3.882-15.541,8.833-37.869,11.333-51.71h-19.125
			C134.538,45.237,129.408,66.686,127.715,74.633z"/>
	</g>
</g>
</svg>
