<svg xmlns="http://www.w3.org/2000/svg" width="512" height="512" viewBox="0 0 512 512"><g fill="#FFF"><path d="M119.387 20.312h21.298v21.045h19.485V20.312h21.303v63.727H160.17V62.7h-19.485v21.338h-21.298V20.312zM209.482 41.444h-18.754V20.312h58.812v21.133h-18.759v42.594h-21.3V41.444zM258.879 20.312h22.21l13.661 22.392 13.648-22.392h22.219v63.727h-21.212V52.453L294.75 75.111h-.366l-14.665-22.658v31.585h-20.84V20.312zM341.219 20.312h21.308v42.664h29.955v21.062h-51.263V20.312zM200.662 266.676H256v-42.92h-59.169l3.831 42.92zM88.686 111.982l30.47 341.74 136.762 37.966 136.891-37.948 30.507-341.758H88.686zm278.008 319.999L256 462.668v-43.494l-.067.02-85.858-23.835-6.004-67.298h42.075l3.116 34.914 46.68 12.607.059-.019V308.59h-93.669l-11.306-126.749H256v-41.914h136.766l-26.072 292.054z"/><path opacity=".8" d="M307.592 308.59H256v66.974l46.728-12.613 4.864-54.361zM256 139.927v41.914h104.975l-3.754 41.915H256v42.92h97.406l-11.499 128.683L256 419.174v43.494l110.694-30.687 26.071-292.055H256z"/><g opacity=".2"><path d="M256 181.841H151.025l11.306 126.749H256v-41.914h-55.338l-3.831-42.92H256zM256 375.563l-.059.019-46.679-12.607-3.116-34.914H164.07l6.004 67.297 85.859 23.835.067-.019z"/></g></g></svg>