<svg xmlns="http://www.w3.org/2000/svg" width="2500" height="2500" viewBox="0 0 2500 2500"><path fill="none" d="M0 .002h2500v2499.996H0V.002z"/><path fill="#FFF" d="M1882.25 2169.831l-632.26 170.243-632.269-170.243L471.82 589.182h1556.35l-145.92 1580.649z"/><path opacity=".5" fill="#FFF" d="M1249.986 717.212v1487.08l1.43.39 511.661-137.777 118.102-1349.692h-631.193v-.001z"/><path fill="#FFF" d="M891.156 356.952v-94.08h137.263V159.926H788.21v290.966h240.209v-93.94H891.156zm384.184-94.08h95.965V159.926h-240.232v102.946c32.14 32.14 48.901 47.522 95.385 94.006-27.173 0-95.385.098-95.385.093v93.922h240.232v-93.94l-95.965-94.081zm340.485 0h95.96V159.926h-240.241v102.946c32.14 32.14 48.91 47.522 95.394 94.006-27.164 0-95.394.098-95.394.093v93.922h240.245v-93.94l-95.964-94.081zM1249.425 1112.438l-452.529 188.467 15.007 186.596 437.522-187.069 465.41-198.984 19.296-190.88-484.706 201.87z"/><path opacity=".3" fill="#FFF" d="M796.891 1300.904l15.007 186.596 437.522-187.069v-187.993l-452.529 188.466z"/><linearGradient id="a" gradientUnits="userSpaceOnUse" x1="141.861" y1="-231.581" x2="141.861" y2="-315.57" gradientTransform="translate(833.287 2375.38) scale(4.6418)"><stop offset=".387" stop-color="#d1d3d4" stop-opacity="0"/><stop offset="1" stop-color="#d1d3d4"/></linearGradient><linearGradient id="b" gradientUnits="userSpaceOnUse" x1="-7.691" y1="-155.241" x2="186.374" y2="-155.241" gradientTransform="translate(833.287 2375.38) scale(4.6418)"><stop offset="0" stop-color="#e8e7e5"/><stop offset="1" stop-color="#fff"/></linearGradient><path opacity=".3" fill="#FFF" d="M1249.425 1300.904H796.896l15.007 186.596 437.522 1.397v-187.993zm0 499.124l-2.145.599-212.325-53.617-12.867-154.424h-197.31l25.734 298.12 398.912 117.957v-208.635z"/><linearGradient id="c" gradientUnits="userSpaceOnUse" x1="-16.62" y1="-295.008" x2="194.072" y2="-295.008" gradientTransform="translate(833.287 2375.38) scale(4.6418)"><stop offset="0" stop-color="#e8e7e5"/><stop offset="1" stop-color="#fff"/></linearGradient><path opacity=".3" fill="#FFF" d="M1249.425 910.57H756.141l23.589 190.881h469.695V910.57z"/></svg>