<svg xmlns="http://www.w3.org/2000/svg" width="521.561" height="119.516" viewBox="0 0 521.561 119.516"><g fill="#136BB0"><path d="M11.248 29.241l.418-1.359c-.234 0 1.841-3.188 1.608-3.188C-1.913 39.392-.596 59.071 6.707 73.217 11.8 83.084 21.122 92.321 32.208 97.3c5.135 2.303 12.998 4.42 21.251 4.25 17.652-.368 30.027-8.712 37.011-22.312l.411-1.063c-6.163 6.212-16.207 10.526-24.084 11.333C34.021 92.866.303 63.505 11.248 29.241zM54.755 34.257c4.328 6.963 12.594 13.083 25.5 10.335 3.259-.694 10.64-6.248 11.922-9.188-11.064 7.53-17.929 5.008-21.18 4.052-.716-.205-2.373-.949-3.917-1.877-3.428-2.062-5.122-3.004-7.792-6.885-1.466-2.132-2.933-5.519-3.414-7.459-.794-3.209-.574-8.146.935-12.396-5.008 4.469-5.78 13.104-4.102 18.814.213.722 1.403 3.563 2.048 4.604z"/><path d="M58.297 71.091c17.326 2.317 30.247-4.965 34.709-16.291-5.1 5.411-13.714 9.265-21.959 9.208-18.438-.12-39.158-16.639-36.834-39.668.198-1.983.991-5.093 3.116-9.124-6.113 7.708-9.824 14.062-8.783 24.708 1.423 14.627 15.244 29.227 29.751 31.167z"/></g><path d="M499.723 10.052l-31.289 43.331-2.832-11.334h-20.543s2.039 10.314 3.541 15.584c1.488 5.206 4.137 10.391 4.25 15.584.129 5.942-2.982 17.099-2.982 17.099l19.984-.099s2.152-10.704 4.25-15.584c.828-1.941 2.465-3.506 3.541-4.958 3.314-4.484 43.918-59.502 43.918-59.502l-21.838-.121z"/><path d="M458.37 21.655c-4.393-2.642-14.834-1.501-23.766-1.501H420.77c-8.664 0-13.793-.574-14.67 2.769-2.707 10.328-14.168 67.294-14.168 67.294h18.418l12.041-52.418h9.918c11.475 0 32.562-.312 32.562-.312s-2.472-13.402-6.501-15.832zM387.858 27.229c-3.859-5.383-11.764-7.253-17-7.792-13.904-1.423-25.479 2.296-31.875 7.084-1.934 1.445-3.543 2.607-4.959 4.25-.51.595-1.062 1.261-1.537 1.948-.41.581-.9.978-1.297 1.594-.588.892-1.211 2.579-1.947 4.073-.588 1.197-1.148 2.607-1.594 3.719-3.84 9.591-7.756 27.491-4.25 36.834.518 1.382 1.672 3.131 2.068 3.662.496.666.949 1.438 1.473 2.005 1.92 2.069 4.762 3.528 7.793 4.25 15.35 3.662 46.043 2.125 46.043 2.125l3.762-16.66s-21.721.978-32.096-.34c-1.553-.198-5.873-.418-8.09-2.359-1.928-1.686-4.201-5.674-2.535-8.266 1.182-1.849 5.941-1.297 9.916-1.417 12.785-.39 36.125 0 36.125 0s4.471-19.877 2.125-28.334c-.58-2.083-1.09-4.938-2.125-6.376zm-15.229 19.956l-27.449-.177s-.311-11.858 15.691-11.355c5.666.177 7.656.949 9.811 4.271 2.522 3.895 1.947 7.261 1.947 7.261zM305.512 20.09l-12.75 53.127s-7.055.049-9.209 0c-6.799-.156-9.031-.383-10.625-3.542-1.678-3.322-.07-7.551.709-12.042 2.174-12.538 7.402-37.649 7.402-37.649l-18.502.17s-3.522 16.129-5.193 24.02c-2.366 11.15-7.402 27.562-2.125 37.543 5.44 10.278 18.226 8.5 32.583 8.5h20.543c5.072-23.022 15.023-70.233 15.023-70.233l-17.856.106zM246.719 27.882c-1.09-7.919-6.254-16.526-11.921-20.131-.234-.142-1.247-.95-1.538-1.12-4.193-2.429-10.908-4.477-15.583-4.958-24.105-2.472-38.485 8.238-46.751 22.667-3.252 5.667-5.405 11.858-7.084 18.418-1.856 7.267-3.188 16.079-2.125 24.083.637 4.796 3.272 11.61 7.084 15.584 9.385 9.783 27.788 8.5 47.459 8.5 6.028 0 20.486-.12 24.849-.233 1.41-.042 5.455-16.505 5.093-17.036-.347-.411-5.164.163-10.66-.333 5.39-14.238 13.218-30.608 11.177-45.441zm-24.792 26.209c-1.785 6.326-3.542 12.722-5.667 18.417-14.316-.084-27.612 1.871-31.876-7.083-2.408-5.065-1.325-11.922 0-18.417 1.778-8.749 3.478-15.103 8.501-20.543 3.881-4.2 13.649-9.35 24.084-5.666 3.463 1.225 8.833 7.055 9.208 13.458.347 5.986-2.38 13.19-4.25 19.834zM136.215 37.091h19.834c1.254-5.355 2.444-11.497 3.634-16.916-6.97 0-12.871-.085-19.218-.085-1.536 5.164-2.713 11.064-4.25 17.001zM127.715 74.633c-2.925 13.757-3.308 28.037-18.417 26.209-1.445 5.313-3.28 12.432-4.902 18.361 6.198.128 11.901.602 16.944.057 3.103-.34 8.706-1.679 9.917-2.834.489-.467.829-.248 1.417-.708 6.573-5.135 8.195-12.233 10.625-21.959 3.882-15.541 8.833-37.869 11.333-51.71h-19.125c-.969 3.188-6.099 24.637-7.792 32.584z"/></svg>