<svg xmlns="http://www.w3.org/2000/svg" width="184" height="191.5" viewBox="0 0 184 191.5"><path d="M1.426 60.015v107c0 .949 4.732-.015 4.732-1.613v-107c0-.949-4.732.015-4.732 1.613z"/><path d="M3.222 168.154h180.667c.366 0-1.646-3.893-2.859-3.893H.363c-.366.001 1.646 3.893 2.859 3.893z"/><path d="M55.819 2.215v188.334c0 1.783 5.278.158 5.278-1.348V39.965.868c.001-1.783-5.278-.158-5.278 1.347z"/><path d="M112.67 186.569c-7.887-7.11-10.234-19.885-12.27-29.772-2.729-13.255-4.178-26.733-6.494-40.06-1.477-8.485-2.823-19.626-9.257-26.023-6.338-6.302-14.131-2.103-19.365 3.092-1 .993 3.348 2.896 4.349 2.137 16.497-12.514 35.722-39.119 22.42-60.189-5.404-8.56-16.165-11.883-25.752-12.205-18.333-.616-36.648 8.651-52.017 17.591-.929.541 3.106 2.859 4.349 2.137 14.481-8.424 30.733-16.509 47.792-17.283 9.978-.453 19.111 3.089 23.139 12.724 8.522 20.381-9.076 43.557-24.28 55.089l4.349 2.137c2.502-2.484 5.853-5.779 9.606-6.049 1.992-.143 3.818 3.608 4.728 5.575 4.243 9.171 5.347 20.016 6.849 29.893 1.851 12.169 3.409 24.412 6.28 36.396 2.086 8.708 4.938 18.556 11.818 24.759.858.772 5.634 1.745 3.756.051z"/><path d="M176.913 111.414c-.201 19.311-9.094 49.263-32.614 50.84-10.127.68-18.266-6.355-23.636-14.206-7.019-10.261-9.62-23.161-9.747-35.397-.202-19.295 9.379-49.282 32.613-50.84 10.128-.679 18.267 6.355 23.637 14.206 7.019 10.26 9.62 23.161 9.747 35.397.026 2.441 5.61 4.017 5.582 1.236-.215-20.52-8.387-45.108-29.199-53.15-19.869-7.677-36.509 8.685-43.323 25.884-8.508 21.473-5.871 49.486 8.907 67.646 12.109 14.881 32.177 17.796 46.687 4.668 12.252-11.085 16.762-29.132 16.929-45.048.025-2.437-5.554-4.03-5.583-1.236z"/></svg>