<?xml version="1.0" encoding="utf-8"?>
<!-- Generator: Adobe Illustrator 16.0.0, SVG Export Plug-In . SVG Version: 6.00 Build 0)  -->
<!DOCTYPE svg PUBLIC "-//W3C//DTD SVG 1.1//EN" "http://www.w3.org/Graphics/SVG/1.1/DTD/svg11.dtd">
<svg version="1.1" id="Layer_2" xmlns="http://www.w3.org/2000/svg" xmlns:xlink="http://www.w3.org/1999/xlink" x="0px" y="0px"
	 width="184px" height="191.5px" viewBox="0 0 184 191.5" enable-background="new 0 0 184 191.5" xml:space="preserve">
<g>
	<g>
		<path fill="#FFFFFF" d="M1.426,60.015c0,35.667,0,71.333,0,107c0,0.949,4.732-0.015,4.732-1.613c0-35.666,0-71.333,0-107
			C6.158,57.453,1.426,58.417,1.426,60.015L1.426,60.015z"/>
	</g>
</g>
<g>
	<g>
		<path fill="#FFFFFF" d="M3.222,168.154c49.797,0,99.595,0,149.392,0c10.425,0,20.851,0,31.275,0c0.366,0-1.646-3.893-2.859-3.893
			c-49.797,0-99.594,0-149.392,0c-10.425,0-20.85,0-31.275,0C-0.003,164.262,2.009,168.154,3.222,168.154L3.222,168.154z"/>
	</g>
</g>
<g>
	<g>
		<path fill="#FFFFFF" d="M55.819,2.215c0,49.746,0,99.491,0,149.237c0,13.032,0,26.064,0,39.097c0,1.783,5.278,0.158,5.278-1.348
			c0-49.746,0-99.491,0-149.236c0-13.033,0-26.065,0-39.097C61.098-0.915,55.819,0.71,55.819,2.215L55.819,2.215z"/>
	</g>
</g>
<g>
	<g>
		<path fill="#FFFFFF" d="M112.67,186.569c-7.887-7.11-10.233-19.884-12.27-29.772c-2.728-13.255-4.178-26.733-6.495-40.06
			c-1.475-8.485-2.822-19.626-9.256-26.023c-6.339-6.302-14.131-2.104-19.365,3.092c-1,0.993,3.348,2.896,4.349,2.137
			c16.497-12.513,35.722-39.118,22.42-60.189c-5.404-8.56-16.165-11.883-25.752-12.205c-18.332-0.616-36.647,8.65-52.016,17.591
			c-0.929,0.541,3.106,2.859,4.349,2.137c14.48-8.424,30.733-16.509,47.792-17.283c9.979-0.453,19.111,3.089,23.14,12.724
			c8.521,20.381-9.077,43.557-24.28,55.089c1.45,0.712,2.899,1.424,4.349,2.137c2.502-2.483,5.853-5.779,9.606-6.048
			c1.992-0.143,3.818,3.607,4.728,5.574c4.242,9.171,5.346,20.016,6.849,29.893c1.851,12.168,3.409,24.412,6.279,36.396
			c2.086,8.708,4.939,18.556,11.819,24.759C109.772,187.29,114.548,188.263,112.67,186.569L112.67,186.569z"/>
	</g>
</g>
<g>
	<g>
		<path fill="#FFFFFF" d="M176.913,111.414c-0.201,19.311-9.094,49.263-32.614,50.84c-10.127,0.68-18.266-6.355-23.636-14.206
			c-7.019-10.261-9.62-23.161-9.747-35.397c-0.202-19.295,9.379-49.282,32.613-50.84c10.128-0.679,18.267,6.355,23.637,14.206
			C174.185,86.277,176.786,99.178,176.913,111.414c0.026,2.441,5.61,4.017,5.582,1.236c-0.215-20.52-8.387-45.108-29.199-53.15
			c-19.869-7.677-36.509,8.685-43.323,25.884c-8.508,21.473-5.871,49.486,8.907,67.646c12.109,14.881,32.177,17.796,46.687,4.668
			c12.252-11.085,16.762-29.132,16.929-45.048C182.521,110.213,176.942,108.62,176.913,111.414z"/>
	</g>
</g>
</svg>
